<mxfile host="app.diagrams.net" agent="Mozilla/5.0 (Windows NT 10.0; Win64; x64) AppleWebKit/537.36 (KHTML, like Gecko) Chrome/138.0.0.0 Safari/537.36" version="28.0.4" pages="2">
  <diagram name="Page-1" id="HmYBabCRJP7DJoiGGgvH">
    <mxGraphModel dx="663" dy="346" grid="1" gridSize="10" guides="1" tooltips="1" connect="1" arrows="1" fold="1" page="1" pageScale="1" pageWidth="850" pageHeight="1100" math="0" shadow="0">
      <root>
        <mxCell id="0" />
        <mxCell id="1" parent="0" />
        <mxCell id="hEr3JiRxEZSeGaH14vZn-1" value="" style="rounded=0;whiteSpace=wrap;html=1;fillColor=light-dark(#BAE9FE,#79BCFF);fillStyle=solid;fontColor=#CDE9FF;strokeColor=#BBF1E7;" parent="1" vertex="1">
          <mxGeometry width="930" height="40" as="geometry" />
        </mxCell>
        <mxCell id="hEr3JiRxEZSeGaH14vZn-2" value="MAC PAPERS - EU DIRECT ORLANDO" style="text;html=1;align=left;verticalAlign=middle;whiteSpace=wrap;rounded=0;fontColor=#006599;fontStyle=1" parent="1" vertex="1">
          <mxGeometry width="300" height="20" as="geometry" />
        </mxCell>
        <mxCell id="hEr3JiRxEZSeGaH14vZn-3" value="Exploring MAC PAPERS - EU DIRECT ORLANDO orignially belonging to BRONZE. -1 in may suggest absent features in trained data. To add and retrain, go to Defaults and Correlation" style="text;html=1;align=left;verticalAlign=middle;whiteSpace=wrap;rounded=0;fontSize=8;" parent="1" vertex="1">
          <mxGeometry y="20" width="790" height="15" as="geometry" />
        </mxCell>
        <mxCell id="hEr3JiRxEZSeGaH14vZn-4" value="" style="rounded=1;whiteSpace=wrap;html=1;" parent="1" vertex="1">
          <mxGeometry x="4" y="43" width="180" height="100" as="geometry" />
        </mxCell>
        <mxCell id="hEr3JiRxEZSeGaH14vZn-5" value="" style="dashed=0;labelPosition=right;align=left;shape=mxgraph.gmdl.checkbox;strokeColor=none;fillColor=#009587;strokeWidth=2;aspect=fixed;sketch=0;html=1;" parent="1" vertex="1">
          <mxGeometry x="14" y="53" width="16" height="16" as="geometry" />
        </mxCell>
        <mxCell id="hEr3JiRxEZSeGaH14vZn-6" value="Profit" style="text;html=1;align=left;verticalAlign=middle;whiteSpace=wrap;rounded=0;fontStyle=1;fontColor=light-dark(#000000,#000000);" parent="1" vertex="1">
          <mxGeometry x="34" y="46" width="70" height="30" as="geometry" />
        </mxCell>
        <mxCell id="hEr3JiRxEZSeGaH14vZn-7" value="Scale" style="rounded=1;fillColor=#0057D8;align=center;strokeColor=none;html=1;whiteSpace=wrap;fontColor=#ffffff;fontSize=12;sketch=0;fontStyle=1" parent="1" vertex="1">
          <mxGeometry x="109.5" y="48" width="65" height="26" as="geometry" />
        </mxCell>
        <mxCell id="hEr3JiRxEZSeGaH14vZn-33" value="" style="group;fontColor=light-dark(#000000,#010101);" parent="1" vertex="1" connectable="0">
          <mxGeometry x="14" y="101" width="160.5" height="31" as="geometry" />
        </mxCell>
        <mxCell id="hEr3JiRxEZSeGaH14vZn-30" value="484484" style="rounded=1;fillColor=light-dark(#F1F2F4,#FFFFFF);strokeColor=none;html=1;whiteSpace=wrap;fontColor=light-dark(#596780,#000000);align=left;fontSize=12;spacingLeft=10;sketch=0;fillStyle=solid;" parent="hEr3JiRxEZSeGaH14vZn-33" vertex="1">
          <mxGeometry width="160" height="30" as="geometry" />
        </mxCell>
        <mxCell id="hEr3JiRxEZSeGaH14vZn-32" value="" style="shape=image;verticalLabelPosition=bottom;labelBackgroundColor=default;verticalAlign=top;aspect=fixed;imageAspect=0;image=data:image/png,iVBORw0KGgoAAAANSUhEUgAAAHkAAACxCAYAAADgQRKQAAAAAXNSR0IArs4c6QAAAARnQU1BAACxjwv8YQUAAAAJcEhZcwAADsMAAA7DAcdvqGQAAAfmSURBVHhe7dzvUhpZGsfxH9JojH/4K4YYJ83Umq1aa1/MHTRXEng1VVO1Fe9AuBK4E7mC2UrtuFWjU0M70SAoCEaj0o3ZF0OzejjdZhI1fc7zfF/B06TK+PE0TTcQ+fmXnU/gQt90zEAyvoB0Mo6Z6Zi4ObAII6tXJhVHbikNw4iKm6RNiQMu/B13+/jvbzY6J6fiJmmMrGjD4TX+eN/Cu2Zb3DSRdHf9w/qaOOIeMdcd4mrg4OLyCh/OP6J3eiY+5FaJxXnkV3PieByv5BBmGFHMPX2CTCqO/GoO//z793ieTWNqSs7VOz1D411THI+T/ysuVBlGFMtLKayvmUgnF8XNwAjab9fNyAplGFF893wZq7msuAkYHZDJDsYYWcEyqTjMF8/EMQDgoHUE1x3emjGyoiXjC9IVPRxeo3nUuTVjZIXLpOLS5+jjbh9XA2d8n5EV73k2Iz3q7pz0x7cnt3JKZRhRPMskxTFO+h/GtxlZg9LJuDjCwHFx9vECYGQ9MowoEovz4hhn54ysVQtzT8URLi6vAEbWp9knM+IIl1cDgJH1SfZGAsd1AUbWJ9kbCK6v/7zAyMga9+kTI5OJkQnEyARiZAIxMoEYmUCMTCBGJhAjE4gccqVSQSQSQT6fR6VSETdrGSnkQqGAcrkMALBtG+VyGaVSSXyYdpFBLhQKqNfr4hi1Wg35fF4caxUJZD9gL9u2tYbWGtm27TuBvTxo27bFTcqnLbJt2yiVSlJgy7JgWZY4Hv9R6AatJbK3Kv2At7a2UK1WyUBrhxz0/OoBA4BpmqhWq+Oj7ZvpBq0Vcr1e/yxgL9M08fr160Bo2d5AtbRBrtfrKBQK4hgAUCwWJ4C9TNPE5uamL3SpVEKtVhM3KVX0x5/+NfG/y2XT4ijU3QVcrVbF8USWZSESiUys3F6vh7dv36Lf70ufw8PU4VFXHCGXTau/kmu1mi9wtVr9LGCvoBVdq9WUPQ2q9Equ1Wq+pyWr1SqKxaI4vrOgFV2v1xGJREK7orVbyZVKxRd4a2vri4C9Njc3ffcA5XJZuRWtJHKpVJLuVjECvo+VFvRcrhq0cshBR7v3BexVLBbRaDTEMaAYtFLIhUJBCmya5r0De5mmiUajAdM0xU3KXKpUBtnvxIR35uohgL28PyIZtAqXKpVArlQqvsAPtYLFgqC9kyZhTQlkv1203270oQqClv0RhiUlkMVfqmVZvgdED53f3kO8H6aUOBliWRb6/T56vR42NjZ8X9o8VolEApZlIZlMwrZtbGxs4M2bN0gkEuJDHzW/kyH8Vcga9e/tXXGEH9bX1Nhdc18XIxOIkQnEyARiZAIxMoEYmUCMTCBGJhAjE4iRCcTIBGJkAjEygRiZQIxMIEYmECMTiJEJxMgEYmQCMTKBGJlAjEwgRiYQIxOIkQnEyARiZAIxMoEYmUCMTCDph9A5feIPoROJkQnEyARiZAJJD7z423/UjL/9h3CMTCBGJhAjE4iRCcTIBGJkAjEygRiZQIxMIEYmECMTiJEJxMgEYmQCMTKBGJlAjEwgRiYQIxOIkQnEyARiZAIxMoEYmUCMTCBGJhAjE4iRCcTIBGJkAjEygRiZQIxMIEYmkBLIA8fB4VEX2zs2Do+64uZvlvcz7R20MHAccXNoUgK52e6i2e5g4DhotjvY3rG/6S914DjYtffHP1O3d4q9g5b4sNCkBHK3d3rr/sBxsNs4+CbQA8fB3kELZ+cXt+cD99b9MKUE8suVZXH0TaD9gAEgnVwUR6FJCeT5uVmkEpO/xMeEHjgOtndsKfD83CyeLaXEcWhSAnk6FkMum0IumxY3PQr02fkFtndscQyMgNfMF+I4VCmBjBF0KrEQCC1bZV/b2fkFdu19cQwASCUWQw8MlZAxgn625L+i9w5a9/oS6y5g2bFCGFMK2SsIunNyei/QQcC5bFoZYKiKjAeG7vZOfYFfriyH+iBLlrLIuAO62e58EXTQiY2XK8vSo/ywpzQyRtB+u86/Cn141PUFXjNfKAkMHZAxOghaf2WKY+AvQO8dtNBsd8QxMAKen5sVx8qkBTJGR95B0H4rFAB27f2JU6deqgNDJ2TcgJ6OxcRNvs+1u/a+9PX1dCymBTB0Q4aHk1/xhb555ioI+OXKshbA0BEZd0B756CDgNdfmdoAQ1dkfAZ0ELBuaYuMG9Cfsyrn52a1BIbuyLjx/Br0GleFK0lfk/bIuONSpe7AoIIMyaXKP+HT2gODEjJuXKpcf2Vi/ZWp3IWGL40UspfsiFvnSCJTi5EJxMgEYmQCMTKBGJlAjEwgRiYQIxOIkQnEyBoXiUQARtYn1x2KI0xNMbJWXQ0mP7obMwyAkfXp4vJKHOHJzDTAyPr04fyjOMLskxmAkfXIdYfonZ6J4/EbGBlZgzonfXGE6ZiB+aeMrEWuO8Th8Yk4RjK+ML7NyIr3vn2M6+trcYx0Mj6+zcgKd9zto3My+WnMTCqOmen/v4+NkRXtpP8B75ptcYxodAq5pdvvL2dkBTvu9mHvH4pjAMDK8hIMI3prxsgK5bpD/PG+JV3BGO2mZV//yMgK5LpDtI662N61pc/BAJBYnMdqLiuOAUYOZ647xPnHSxx3+2i8a+I/v/6O9+2O9CgaI+D8ak4cj4v8/MvOJ3HIqVMmFfddwV68khUtGp3Cd8+X7wQGI6tZJhXHP/5mSg+yZP0PsBocI+NhLRcAAAAASUVORK5CYII=;" parent="hEr3JiRxEZSeGaH14vZn-33" vertex="1">
          <mxGeometry x="137.5" width="20.5" height="30" as="geometry" />
        </mxCell>
        <mxCell id="te6y8Lruh-g222A2JV-M-1" value="Value" style="text;html=1;align=left;verticalAlign=middle;whiteSpace=wrap;rounded=0;fontColor=light-dark(#000000,#000000);fontStyle=1" vertex="1" parent="1">
          <mxGeometry x="14" y="77" width="40" height="30" as="geometry" />
        </mxCell>
        <mxCell id="te6y8Lruh-g222A2JV-M-2" value="" style="rounded=1;whiteSpace=wrap;html=1;" vertex="1" parent="1">
          <mxGeometry x="190" y="43" width="180" height="100" as="geometry" />
        </mxCell>
        <mxCell id="te6y8Lruh-g222A2JV-M-3" value="" style="dashed=0;labelPosition=right;align=left;shape=mxgraph.gmdl.checkbox;strokeColor=none;fillColor=#009587;strokeWidth=2;aspect=fixed;sketch=0;html=1;" vertex="1" parent="1">
          <mxGeometry x="200" y="53" width="16" height="16" as="geometry" />
        </mxCell>
        <mxCell id="te6y8Lruh-g222A2JV-M-4" value="Profit" style="text;html=1;align=left;verticalAlign=middle;whiteSpace=wrap;rounded=0;fontStyle=1;fontColor=light-dark(#000000,#000000);" vertex="1" parent="1">
          <mxGeometry x="220" y="46" width="70" height="30" as="geometry" />
        </mxCell>
        <mxCell id="te6y8Lruh-g222A2JV-M-5" value="Scale" style="rounded=1;fillColor=#0057D8;align=center;strokeColor=none;html=1;whiteSpace=wrap;fontColor=#ffffff;fontSize=12;sketch=0;fontStyle=1" vertex="1" parent="1">
          <mxGeometry x="295.5" y="48" width="65" height="26" as="geometry" />
        </mxCell>
        <mxCell id="te6y8Lruh-g222A2JV-M-6" value="" style="group;fontColor=light-dark(#000000,#010101);" vertex="1" connectable="0" parent="1">
          <mxGeometry x="200" y="101" width="160.5" height="31" as="geometry" />
        </mxCell>
        <mxCell id="te6y8Lruh-g222A2JV-M-7" value="484484" style="rounded=1;fillColor=light-dark(#F1F2F4,#FFFFFF);strokeColor=none;html=1;whiteSpace=wrap;fontColor=light-dark(#596780,#000000);align=left;fontSize=12;spacingLeft=10;sketch=0;fillStyle=solid;" vertex="1" parent="te6y8Lruh-g222A2JV-M-6">
          <mxGeometry width="160" height="30" as="geometry" />
        </mxCell>
        <mxCell id="te6y8Lruh-g222A2JV-M-8" value="" style="shape=image;verticalLabelPosition=bottom;labelBackgroundColor=default;verticalAlign=top;aspect=fixed;imageAspect=0;image=data:image/png,iVBORw0KGgoAAAANSUhEUgAAAHkAAACxCAYAAADgQRKQAAAAAXNSR0IArs4c6QAAAARnQU1BAACxjwv8YQUAAAAJcEhZcwAADsMAAA7DAcdvqGQAAAfmSURBVHhe7dzvUhpZGsfxH9JojH/4K4YYJ83Umq1aa1/MHTRXEng1VVO1Fe9AuBK4E7mC2UrtuFWjU0M70SAoCEaj0o3ZF0OzejjdZhI1fc7zfF/B06TK+PE0TTcQ+fmXnU/gQt90zEAyvoB0Mo6Z6Zi4ObAII6tXJhVHbikNw4iKm6RNiQMu/B13+/jvbzY6J6fiJmmMrGjD4TX+eN/Cu2Zb3DSRdHf9w/qaOOIeMdcd4mrg4OLyCh/OP6J3eiY+5FaJxXnkV3PieByv5BBmGFHMPX2CTCqO/GoO//z793ieTWNqSs7VOz1D411THI+T/ysuVBlGFMtLKayvmUgnF8XNwAjab9fNyAplGFF893wZq7msuAkYHZDJDsYYWcEyqTjMF8/EMQDgoHUE1x3emjGyoiXjC9IVPRxeo3nUuTVjZIXLpOLS5+jjbh9XA2d8n5EV73k2Iz3q7pz0x7cnt3JKZRhRPMskxTFO+h/GtxlZg9LJuDjCwHFx9vECYGQ9MowoEovz4hhn54ysVQtzT8URLi6vAEbWp9knM+IIl1cDgJH1SfZGAsd1AUbWJ9kbCK6v/7zAyMga9+kTI5OJkQnEyARiZAIxMoEYmUCMTCBGJhAjE4gccqVSQSQSQT6fR6VSETdrGSnkQqGAcrkMALBtG+VyGaVSSXyYdpFBLhQKqNfr4hi1Wg35fF4caxUJZD9gL9u2tYbWGtm27TuBvTxo27bFTcqnLbJt2yiVSlJgy7JgWZY4Hv9R6AatJbK3Kv2At7a2UK1WyUBrhxz0/OoBA4BpmqhWq+Oj7ZvpBq0Vcr1e/yxgL9M08fr160Bo2d5AtbRBrtfrKBQK4hgAUCwWJ4C9TNPE5uamL3SpVEKtVhM3KVX0x5/+NfG/y2XT4ijU3QVcrVbF8USWZSESiUys3F6vh7dv36Lf70ufw8PU4VFXHCGXTau/kmu1mi9wtVr9LGCvoBVdq9WUPQ2q9Equ1Wq+pyWr1SqKxaI4vrOgFV2v1xGJREK7orVbyZVKxRd4a2vri4C9Njc3ffcA5XJZuRWtJHKpVJLuVjECvo+VFvRcrhq0cshBR7v3BexVLBbRaDTEMaAYtFLIhUJBCmya5r0De5mmiUajAdM0xU3KXKpUBtnvxIR35uohgL28PyIZtAqXKpVArlQqvsAPtYLFgqC9kyZhTQlkv1203270oQqClv0RhiUlkMVfqmVZvgdED53f3kO8H6aUOBliWRb6/T56vR42NjZ8X9o8VolEApZlIZlMwrZtbGxs4M2bN0gkEuJDHzW/kyH8Vcga9e/tXXGEH9bX1Nhdc18XIxOIkQnEyARiZAIxMoEYmUCMTCBGJhAjE4iRCcTIBGJkAjEygRiZQIxMIEYmECMTiJEJxMgEYmQCMTKBGJlAjEwgRiYQIxOIkQnEyARiZAIxMoEYmUCMTCDph9A5feIPoROJkQnEyARiZAJJD7z423/UjL/9h3CMTCBGJhAjE4iRCcTIBGJkAjEygRiZQIxMIEYmECMTiJEJxMgEYmQCMTKBGJlAjEwgRiYQIxOIkQnEyARiZAIxMoEYmUCMTCBGJhAjE4iRCcTIBGJkAjEygRiZQIxMIEYmkBLIA8fB4VEX2zs2Do+64uZvlvcz7R20MHAccXNoUgK52e6i2e5g4DhotjvY3rG/6S914DjYtffHP1O3d4q9g5b4sNCkBHK3d3rr/sBxsNs4+CbQA8fB3kELZ+cXt+cD99b9MKUE8suVZXH0TaD9gAEgnVwUR6FJCeT5uVmkEpO/xMeEHjgOtndsKfD83CyeLaXEcWhSAnk6FkMum0IumxY3PQr02fkFtndscQyMgNfMF+I4VCmBjBF0KrEQCC1bZV/b2fkFdu19cQwASCUWQw8MlZAxgn625L+i9w5a9/oS6y5g2bFCGFMK2SsIunNyei/QQcC5bFoZYKiKjAeG7vZOfYFfriyH+iBLlrLIuAO62e58EXTQiY2XK8vSo/ywpzQyRtB+u86/Cn141PUFXjNfKAkMHZAxOghaf2WKY+AvQO8dtNBsd8QxMAKen5sVx8qkBTJGR95B0H4rFAB27f2JU6deqgNDJ2TcgJ6OxcRNvs+1u/a+9PX1dCymBTB0Q4aHk1/xhb555ioI+OXKshbA0BEZd0B756CDgNdfmdoAQ1dkfAZ0ELBuaYuMG9Cfsyrn52a1BIbuyLjx/Br0GleFK0lfk/bIuONSpe7AoIIMyaXKP+HT2gODEjJuXKpcf2Vi/ZWp3IWGL40UspfsiFvnSCJTi5EJxMgEYmQCMTKBGJlAjEwgRiYQIxOIkQnEyBoXiUQARtYn1x2KI0xNMbJWXQ0mP7obMwyAkfXp4vJKHOHJzDTAyPr04fyjOMLskxmAkfXIdYfonZ6J4/EbGBlZgzonfXGE6ZiB+aeMrEWuO8Th8Yk4RjK+ML7NyIr3vn2M6+trcYx0Mj6+zcgKd9zto3My+WnMTCqOmen/v4+NkRXtpP8B75ptcYxodAq5pdvvL2dkBTvu9mHvH4pjAMDK8hIMI3prxsgK5bpD/PG+JV3BGO2mZV//yMgK5LpDtI662N61pc/BAJBYnMdqLiuOAUYOZ647xPnHSxx3+2i8a+I/v/6O9+2O9CgaI+D8ak4cj4v8/MvOJ3HIqVMmFfddwV68khUtGp3Cd8+X7wQGI6tZJhXHP/5mSg+yZP0PsBocI+NhLRcAAAAASUVORK5CYII=;" vertex="1" parent="te6y8Lruh-g222A2JV-M-6">
          <mxGeometry x="137.5" width="20.5" height="30" as="geometry" />
        </mxCell>
        <mxCell id="te6y8Lruh-g222A2JV-M-9" value="Value" style="text;html=1;align=left;verticalAlign=middle;whiteSpace=wrap;rounded=0;fontColor=light-dark(#000000,#000000);fontStyle=1" vertex="1" parent="1">
          <mxGeometry x="200" y="77" width="40" height="30" as="geometry" />
        </mxCell>
        <mxCell id="te6y8Lruh-g222A2JV-M-10" value="" style="rounded=1;whiteSpace=wrap;html=1;" vertex="1" parent="1">
          <mxGeometry x="377" y="43" width="180" height="100" as="geometry" />
        </mxCell>
        <mxCell id="te6y8Lruh-g222A2JV-M-11" value="" style="dashed=0;labelPosition=right;align=left;shape=mxgraph.gmdl.checkbox;strokeColor=none;fillColor=#009587;strokeWidth=2;aspect=fixed;sketch=0;html=1;" vertex="1" parent="1">
          <mxGeometry x="387" y="53" width="16" height="16" as="geometry" />
        </mxCell>
        <mxCell id="te6y8Lruh-g222A2JV-M-12" value="Profit" style="text;html=1;align=left;verticalAlign=middle;whiteSpace=wrap;rounded=0;fontStyle=1;fontColor=light-dark(#000000,#000000);" vertex="1" parent="1">
          <mxGeometry x="407" y="46" width="70" height="30" as="geometry" />
        </mxCell>
        <mxCell id="te6y8Lruh-g222A2JV-M-13" value="Scale" style="rounded=1;fillColor=#0057D8;align=center;strokeColor=none;html=1;whiteSpace=wrap;fontColor=#ffffff;fontSize=12;sketch=0;fontStyle=1" vertex="1" parent="1">
          <mxGeometry x="482.5" y="48" width="65" height="26" as="geometry" />
        </mxCell>
        <mxCell id="te6y8Lruh-g222A2JV-M-14" value="" style="group;fontColor=light-dark(#000000,#010101);" vertex="1" connectable="0" parent="1">
          <mxGeometry x="387" y="101" width="160.5" height="31" as="geometry" />
        </mxCell>
        <mxCell id="te6y8Lruh-g222A2JV-M-15" value="484484" style="rounded=1;fillColor=light-dark(#F1F2F4,#FFFFFF);strokeColor=none;html=1;whiteSpace=wrap;fontColor=light-dark(#596780,#000000);align=left;fontSize=12;spacingLeft=10;sketch=0;fillStyle=solid;" vertex="1" parent="te6y8Lruh-g222A2JV-M-14">
          <mxGeometry width="160" height="30" as="geometry" />
        </mxCell>
        <mxCell id="te6y8Lruh-g222A2JV-M-16" value="" style="shape=image;verticalLabelPosition=bottom;labelBackgroundColor=default;verticalAlign=top;aspect=fixed;imageAspect=0;image=data:image/png,iVBORw0KGgoAAAANSUhEUgAAAHkAAACxCAYAAADgQRKQAAAAAXNSR0IArs4c6QAAAARnQU1BAACxjwv8YQUAAAAJcEhZcwAADsMAAA7DAcdvqGQAAAfmSURBVHhe7dzvUhpZGsfxH9JojH/4K4YYJ83Umq1aa1/MHTRXEng1VVO1Fe9AuBK4E7mC2UrtuFWjU0M70SAoCEaj0o3ZF0OzejjdZhI1fc7zfF/B06TK+PE0TTcQ+fmXnU/gQt90zEAyvoB0Mo6Z6Zi4ObAII6tXJhVHbikNw4iKm6RNiQMu/B13+/jvbzY6J6fiJmmMrGjD4TX+eN/Cu2Zb3DSRdHf9w/qaOOIeMdcd4mrg4OLyCh/OP6J3eiY+5FaJxXnkV3PieByv5BBmGFHMPX2CTCqO/GoO//z793ieTWNqSs7VOz1D411THI+T/ysuVBlGFMtLKayvmUgnF8XNwAjab9fNyAplGFF893wZq7msuAkYHZDJDsYYWcEyqTjMF8/EMQDgoHUE1x3emjGyoiXjC9IVPRxeo3nUuTVjZIXLpOLS5+jjbh9XA2d8n5EV73k2Iz3q7pz0x7cnt3JKZRhRPMskxTFO+h/GtxlZg9LJuDjCwHFx9vECYGQ9MowoEovz4hhn54ysVQtzT8URLi6vAEbWp9knM+IIl1cDgJH1SfZGAsd1AUbWJ9kbCK6v/7zAyMga9+kTI5OJkQnEyARiZAIxMoEYmUCMTCBGJhAjE4gccqVSQSQSQT6fR6VSETdrGSnkQqGAcrkMALBtG+VyGaVSSXyYdpFBLhQKqNfr4hi1Wg35fF4caxUJZD9gL9u2tYbWGtm27TuBvTxo27bFTcqnLbJt2yiVSlJgy7JgWZY4Hv9R6AatJbK3Kv2At7a2UK1WyUBrhxz0/OoBA4BpmqhWq+Oj7ZvpBq0Vcr1e/yxgL9M08fr160Bo2d5AtbRBrtfrKBQK4hgAUCwWJ4C9TNPE5uamL3SpVEKtVhM3KVX0x5/+NfG/y2XT4ijU3QVcrVbF8USWZSESiUys3F6vh7dv36Lf70ufw8PU4VFXHCGXTau/kmu1mi9wtVr9LGCvoBVdq9WUPQ2q9Equ1Wq+pyWr1SqKxaI4vrOgFV2v1xGJREK7orVbyZVKxRd4a2vri4C9Njc3ffcA5XJZuRWtJHKpVJLuVjECvo+VFvRcrhq0cshBR7v3BexVLBbRaDTEMaAYtFLIhUJBCmya5r0De5mmiUajAdM0xU3KXKpUBtnvxIR35uohgL28PyIZtAqXKpVArlQqvsAPtYLFgqC9kyZhTQlkv1203270oQqClv0RhiUlkMVfqmVZvgdED53f3kO8H6aUOBliWRb6/T56vR42NjZ8X9o8VolEApZlIZlMwrZtbGxs4M2bN0gkEuJDHzW/kyH8Vcga9e/tXXGEH9bX1Nhdc18XIxOIkQnEyARiZAIxMoEYmUCMTCBGJhAjE4iRCcTIBGJkAjEygRiZQIxMIEYmECMTiJEJxMgEYmQCMTKBGJlAjEwgRiYQIxOIkQnEyARiZAIxMoEYmUCMTCDph9A5feIPoROJkQnEyARiZAJJD7z423/UjL/9h3CMTCBGJhAjE4iRCcTIBGJkAjEygRiZQIxMIEYmECMTiJEJxMgEYmQCMTKBGJlAjEwgRiYQIxOIkQnEyARiZAIxMoEYmUCMTCBGJhAjE4iRCcTIBGJkAjEygRiZQIxMIEYmkBLIA8fB4VEX2zs2Do+64uZvlvcz7R20MHAccXNoUgK52e6i2e5g4DhotjvY3rG/6S914DjYtffHP1O3d4q9g5b4sNCkBHK3d3rr/sBxsNs4+CbQA8fB3kELZ+cXt+cD99b9MKUE8suVZXH0TaD9gAEgnVwUR6FJCeT5uVmkEpO/xMeEHjgOtndsKfD83CyeLaXEcWhSAnk6FkMum0IumxY3PQr02fkFtndscQyMgNfMF+I4VCmBjBF0KrEQCC1bZV/b2fkFdu19cQwASCUWQw8MlZAxgn625L+i9w5a9/oS6y5g2bFCGFMK2SsIunNyei/QQcC5bFoZYKiKjAeG7vZOfYFfriyH+iBLlrLIuAO62e58EXTQiY2XK8vSo/ywpzQyRtB+u86/Cn141PUFXjNfKAkMHZAxOghaf2WKY+AvQO8dtNBsd8QxMAKen5sVx8qkBTJGR95B0H4rFAB27f2JU6deqgNDJ2TcgJ6OxcRNvs+1u/a+9PX1dCymBTB0Q4aHk1/xhb555ioI+OXKshbA0BEZd0B756CDgNdfmdoAQ1dkfAZ0ELBuaYuMG9Cfsyrn52a1BIbuyLjx/Br0GleFK0lfk/bIuONSpe7AoIIMyaXKP+HT2gODEjJuXKpcf2Vi/ZWp3IWGL40UspfsiFvnSCJTi5EJxMgEYmQCMTKBGJlAjEwgRiYQIxOIkQnEyBoXiUQARtYn1x2KI0xNMbJWXQ0mP7obMwyAkfXp4vJKHOHJzDTAyPr04fyjOMLskxmAkfXIdYfonZ6J4/EbGBlZgzonfXGE6ZiB+aeMrEWuO8Th8Yk4RjK+ML7NyIr3vn2M6+trcYx0Mj6+zcgKd9zto3My+WnMTCqOmen/v4+NkRXtpP8B75ptcYxodAq5pdvvL2dkBTvu9mHvH4pjAMDK8hIMI3prxsgK5bpD/PG+JV3BGO2mZV//yMgK5LpDtI662N61pc/BAJBYnMdqLiuOAUYOZ647xPnHSxx3+2i8a+I/v/6O9+2O9CgaI+D8ak4cj4v8/MvOJ3HIqVMmFfddwV68khUtGp3Cd8+X7wQGI6tZJhXHP/5mSg+yZP0PsBocI+NhLRcAAAAASUVORK5CYII=;" vertex="1" parent="te6y8Lruh-g222A2JV-M-14">
          <mxGeometry x="137.5" width="20.5" height="30" as="geometry" />
        </mxCell>
        <mxCell id="te6y8Lruh-g222A2JV-M-17" value="Value" style="text;html=1;align=left;verticalAlign=middle;whiteSpace=wrap;rounded=0;fontColor=light-dark(#000000,#000000);fontStyle=1" vertex="1" parent="1">
          <mxGeometry x="387" y="77" width="40" height="30" as="geometry" />
        </mxCell>
        <mxCell id="te6y8Lruh-g222A2JV-M-18" value="" style="rounded=1;whiteSpace=wrap;html=1;" vertex="1" parent="1">
          <mxGeometry x="564" y="43" width="180" height="100" as="geometry" />
        </mxCell>
        <mxCell id="te6y8Lruh-g222A2JV-M-19" value="" style="dashed=0;labelPosition=right;align=left;shape=mxgraph.gmdl.checkbox;strokeColor=none;fillColor=#009587;strokeWidth=2;aspect=fixed;sketch=0;html=1;" vertex="1" parent="1">
          <mxGeometry x="574" y="53" width="16" height="16" as="geometry" />
        </mxCell>
        <mxCell id="te6y8Lruh-g222A2JV-M-20" value="Profit" style="text;html=1;align=left;verticalAlign=middle;whiteSpace=wrap;rounded=0;fontStyle=1;fontColor=light-dark(#000000,#000000);" vertex="1" parent="1">
          <mxGeometry x="594" y="46" width="70" height="30" as="geometry" />
        </mxCell>
        <mxCell id="te6y8Lruh-g222A2JV-M-21" value="Scale" style="rounded=1;fillColor=#0057D8;align=center;strokeColor=none;html=1;whiteSpace=wrap;fontColor=#ffffff;fontSize=12;sketch=0;fontStyle=1" vertex="1" parent="1">
          <mxGeometry x="669.5" y="48" width="65" height="26" as="geometry" />
        </mxCell>
        <mxCell id="te6y8Lruh-g222A2JV-M-22" value="" style="group;fontColor=light-dark(#000000,#010101);" vertex="1" connectable="0" parent="1">
          <mxGeometry x="574" y="101" width="160.5" height="31" as="geometry" />
        </mxCell>
        <mxCell id="te6y8Lruh-g222A2JV-M-23" value="484484" style="rounded=1;fillColor=light-dark(#F1F2F4,#FFFFFF);strokeColor=none;html=1;whiteSpace=wrap;fontColor=light-dark(#596780,#000000);align=left;fontSize=12;spacingLeft=10;sketch=0;fillStyle=solid;" vertex="1" parent="te6y8Lruh-g222A2JV-M-22">
          <mxGeometry width="160" height="30" as="geometry" />
        </mxCell>
        <mxCell id="te6y8Lruh-g222A2JV-M-24" value="" style="shape=image;verticalLabelPosition=bottom;labelBackgroundColor=default;verticalAlign=top;aspect=fixed;imageAspect=0;image=data:image/png,iVBORw0KGgoAAAANSUhEUgAAAHkAAACxCAYAAADgQRKQAAAAAXNSR0IArs4c6QAAAARnQU1BAACxjwv8YQUAAAAJcEhZcwAADsMAAA7DAcdvqGQAAAfmSURBVHhe7dzvUhpZGsfxH9JojH/4K4YYJ83Umq1aa1/MHTRXEng1VVO1Fe9AuBK4E7mC2UrtuFWjU0M70SAoCEaj0o3ZF0OzejjdZhI1fc7zfF/B06TK+PE0TTcQ+fmXnU/gQt90zEAyvoB0Mo6Z6Zi4ObAII6tXJhVHbikNw4iKm6RNiQMu/B13+/jvbzY6J6fiJmmMrGjD4TX+eN/Cu2Zb3DSRdHf9w/qaOOIeMdcd4mrg4OLyCh/OP6J3eiY+5FaJxXnkV3PieByv5BBmGFHMPX2CTCqO/GoO//z793ieTWNqSs7VOz1D411THI+T/ysuVBlGFMtLKayvmUgnF8XNwAjab9fNyAplGFF893wZq7msuAkYHZDJDsYYWcEyqTjMF8/EMQDgoHUE1x3emjGyoiXjC9IVPRxeo3nUuTVjZIXLpOLS5+jjbh9XA2d8n5EV73k2Iz3q7pz0x7cnt3JKZRhRPMskxTFO+h/GtxlZg9LJuDjCwHFx9vECYGQ9MowoEovz4hhn54ysVQtzT8URLi6vAEbWp9knM+IIl1cDgJH1SfZGAsd1AUbWJ9kbCK6v/7zAyMga9+kTI5OJkQnEyARiZAIxMoEYmUCMTCBGJhAjE4gccqVSQSQSQT6fR6VSETdrGSnkQqGAcrkMALBtG+VyGaVSSXyYdpFBLhQKqNfr4hi1Wg35fF4caxUJZD9gL9u2tYbWGtm27TuBvTxo27bFTcqnLbJt2yiVSlJgy7JgWZY4Hv9R6AatJbK3Kv2At7a2UK1WyUBrhxz0/OoBA4BpmqhWq+Oj7ZvpBq0Vcr1e/yxgL9M08fr160Bo2d5AtbRBrtfrKBQK4hgAUCwWJ4C9TNPE5uamL3SpVEKtVhM3KVX0x5/+NfG/y2XT4ijU3QVcrVbF8USWZSESiUys3F6vh7dv36Lf70ufw8PU4VFXHCGXTau/kmu1mi9wtVr9LGCvoBVdq9WUPQ2q9Equ1Wq+pyWr1SqKxaI4vrOgFV2v1xGJREK7orVbyZVKxRd4a2vri4C9Njc3ffcA5XJZuRWtJHKpVJLuVjECvo+VFvRcrhq0cshBR7v3BexVLBbRaDTEMaAYtFLIhUJBCmya5r0De5mmiUajAdM0xU3KXKpUBtnvxIR35uohgL28PyIZtAqXKpVArlQqvsAPtYLFgqC9kyZhTQlkv1203270oQqClv0RhiUlkMVfqmVZvgdED53f3kO8H6aUOBliWRb6/T56vR42NjZ8X9o8VolEApZlIZlMwrZtbGxs4M2bN0gkEuJDHzW/kyH8Vcga9e/tXXGEH9bX1Nhdc18XIxOIkQnEyARiZAIxMoEYmUCMTCBGJhAjE4iRCcTIBGJkAjEygRiZQIxMIEYmECMTiJEJxMgEYmQCMTKBGJlAjEwgRiYQIxOIkQnEyARiZAIxMoEYmUCMTCDph9A5feIPoROJkQnEyARiZAJJD7z423/UjL/9h3CMTCBGJhAjE4iRCcTIBGJkAjEygRiZQIxMIEYmECMTiJEJxMgEYmQCMTKBGJlAjEwgRiYQIxOIkQnEyARiZAIxMoEYmUCMTCBGJhAjE4iRCcTIBGJkAjEygRiZQIxMIEYmkBLIA8fB4VEX2zs2Do+64uZvlvcz7R20MHAccXNoUgK52e6i2e5g4DhotjvY3rG/6S914DjYtffHP1O3d4q9g5b4sNCkBHK3d3rr/sBxsNs4+CbQA8fB3kELZ+cXt+cD99b9MKUE8suVZXH0TaD9gAEgnVwUR6FJCeT5uVmkEpO/xMeEHjgOtndsKfD83CyeLaXEcWhSAnk6FkMum0IumxY3PQr02fkFtndscQyMgNfMF+I4VCmBjBF0KrEQCC1bZV/b2fkFdu19cQwASCUWQw8MlZAxgn625L+i9w5a9/oS6y5g2bFCGFMK2SsIunNyei/QQcC5bFoZYKiKjAeG7vZOfYFfriyH+iBLlrLIuAO62e58EXTQiY2XK8vSo/ywpzQyRtB+u86/Cn141PUFXjNfKAkMHZAxOghaf2WKY+AvQO8dtNBsd8QxMAKen5sVx8qkBTJGR95B0H4rFAB27f2JU6deqgNDJ2TcgJ6OxcRNvs+1u/a+9PX1dCymBTB0Q4aHk1/xhb555ioI+OXKshbA0BEZd0B756CDgNdfmdoAQ1dkfAZ0ELBuaYuMG9Cfsyrn52a1BIbuyLjx/Br0GleFK0lfk/bIuONSpe7AoIIMyaXKP+HT2gODEjJuXKpcf2Vi/ZWp3IWGL40UspfsiFvnSCJTi5EJxMgEYmQCMTKBGJlAjEwgRiYQIxOIkQnEyBoXiUQARtYn1x2KI0xNMbJWXQ0mP7obMwyAkfXp4vJKHOHJzDTAyPr04fyjOMLskxmAkfXIdYfonZ6J4/EbGBlZgzonfXGE6ZiB+aeMrEWuO8Th8Yk4RjK+ML7NyIr3vn2M6+trcYx0Mj6+zcgKd9zto3My+WnMTCqOmen/v4+NkRXtpP8B75ptcYxodAq5pdvvL2dkBTvu9mHvH4pjAMDK8hIMI3prxsgK5bpD/PG+JV3BGO2mZV//yMgK5LpDtI662N61pc/BAJBYnMdqLiuOAUYOZ647xPnHSxx3+2i8a+I/v/6O9+2O9CgaI+D8ak4cj4v8/MvOJ3HIqVMmFfddwV68khUtGp3Cd8+X7wQGI6tZJhXHP/5mSg+yZP0PsBocI+NhLRcAAAAASUVORK5CYII=;" vertex="1" parent="te6y8Lruh-g222A2JV-M-22">
          <mxGeometry x="137.5" width="20.5" height="30" as="geometry" />
        </mxCell>
        <mxCell id="te6y8Lruh-g222A2JV-M-25" value="Value" style="text;html=1;align=left;verticalAlign=middle;whiteSpace=wrap;rounded=0;fontColor=light-dark(#000000,#000000);fontStyle=1" vertex="1" parent="1">
          <mxGeometry x="574" y="77" width="40" height="30" as="geometry" />
        </mxCell>
        <mxCell id="te6y8Lruh-g222A2JV-M-26" value="" style="rounded=1;whiteSpace=wrap;html=1;" vertex="1" parent="1">
          <mxGeometry x="750" y="43" width="180" height="100" as="geometry" />
        </mxCell>
        <mxCell id="te6y8Lruh-g222A2JV-M-27" value="" style="dashed=0;labelPosition=right;align=left;shape=mxgraph.gmdl.checkbox;strokeColor=none;fillColor=#009587;strokeWidth=2;aspect=fixed;sketch=0;html=1;" vertex="1" parent="1">
          <mxGeometry x="760" y="53" width="16" height="16" as="geometry" />
        </mxCell>
        <mxCell id="te6y8Lruh-g222A2JV-M-28" value="Profit" style="text;html=1;align=left;verticalAlign=middle;whiteSpace=wrap;rounded=0;fontStyle=1;fontColor=light-dark(#000000,#000000);" vertex="1" parent="1">
          <mxGeometry x="780" y="46" width="70" height="30" as="geometry" />
        </mxCell>
        <mxCell id="te6y8Lruh-g222A2JV-M-29" value="Scale" style="rounded=1;fillColor=#0057D8;align=center;strokeColor=none;html=1;whiteSpace=wrap;fontColor=#ffffff;fontSize=12;sketch=0;fontStyle=1" vertex="1" parent="1">
          <mxGeometry x="855.5" y="48" width="65" height="26" as="geometry" />
        </mxCell>
        <mxCell id="te6y8Lruh-g222A2JV-M-30" value="" style="group;fontColor=light-dark(#000000,#010101);" vertex="1" connectable="0" parent="1">
          <mxGeometry x="760" y="101" width="160.5" height="31" as="geometry" />
        </mxCell>
        <mxCell id="te6y8Lruh-g222A2JV-M-31" value="484484" style="rounded=1;fillColor=light-dark(#F1F2F4,#FFFFFF);strokeColor=none;html=1;whiteSpace=wrap;fontColor=light-dark(#596780,#000000);align=left;fontSize=12;spacingLeft=10;sketch=0;fillStyle=solid;" vertex="1" parent="te6y8Lruh-g222A2JV-M-30">
          <mxGeometry width="160" height="30" as="geometry" />
        </mxCell>
        <mxCell id="te6y8Lruh-g222A2JV-M-32" value="" style="shape=image;verticalLabelPosition=bottom;labelBackgroundColor=default;verticalAlign=top;aspect=fixed;imageAspect=0;image=data:image/png,iVBORw0KGgoAAAANSUhEUgAAAHkAAACxCAYAAADgQRKQAAAAAXNSR0IArs4c6QAAAARnQU1BAACxjwv8YQUAAAAJcEhZcwAADsMAAA7DAcdvqGQAAAfmSURBVHhe7dzvUhpZGsfxH9JojH/4K4YYJ83Umq1aa1/MHTRXEng1VVO1Fe9AuBK4E7mC2UrtuFWjU0M70SAoCEaj0o3ZF0OzejjdZhI1fc7zfF/B06TK+PE0TTcQ+fmXnU/gQt90zEAyvoB0Mo6Z6Zi4ObAII6tXJhVHbikNw4iKm6RNiQMu/B13+/jvbzY6J6fiJmmMrGjD4TX+eN/Cu2Zb3DSRdHf9w/qaOOIeMdcd4mrg4OLyCh/OP6J3eiY+5FaJxXnkV3PieByv5BBmGFHMPX2CTCqO/GoO//z793ieTWNqSs7VOz1D411THI+T/ysuVBlGFMtLKayvmUgnF8XNwAjab9fNyAplGFF893wZq7msuAkYHZDJDsYYWcEyqTjMF8/EMQDgoHUE1x3emjGyoiXjC9IVPRxeo3nUuTVjZIXLpOLS5+jjbh9XA2d8n5EV73k2Iz3q7pz0x7cnt3JKZRhRPMskxTFO+h/GtxlZg9LJuDjCwHFx9vECYGQ9MowoEovz4hhn54ysVQtzT8URLi6vAEbWp9knM+IIl1cDgJH1SfZGAsd1AUbWJ9kbCK6v/7zAyMga9+kTI5OJkQnEyARiZAIxMoEYmUCMTCBGJhAjE4gccqVSQSQSQT6fR6VSETdrGSnkQqGAcrkMALBtG+VyGaVSSXyYdpFBLhQKqNfr4hi1Wg35fF4caxUJZD9gL9u2tYbWGtm27TuBvTxo27bFTcqnLbJt2yiVSlJgy7JgWZY4Hv9R6AatJbK3Kv2At7a2UK1WyUBrhxz0/OoBA4BpmqhWq+Oj7ZvpBq0Vcr1e/yxgL9M08fr160Bo2d5AtbRBrtfrKBQK4hgAUCwWJ4C9TNPE5uamL3SpVEKtVhM3KVX0x5/+NfG/y2XT4ijU3QVcrVbF8USWZSESiUys3F6vh7dv36Lf70ufw8PU4VFXHCGXTau/kmu1mi9wtVr9LGCvoBVdq9WUPQ2q9Equ1Wq+pyWr1SqKxaI4vrOgFV2v1xGJREK7orVbyZVKxRd4a2vri4C9Njc3ffcA5XJZuRWtJHKpVJLuVjECvo+VFvRcrhq0cshBR7v3BexVLBbRaDTEMaAYtFLIhUJBCmya5r0De5mmiUajAdM0xU3KXKpUBtnvxIR35uohgL28PyIZtAqXKpVArlQqvsAPtYLFgqC9kyZhTQlkv1203270oQqClv0RhiUlkMVfqmVZvgdED53f3kO8H6aUOBliWRb6/T56vR42NjZ8X9o8VolEApZlIZlMwrZtbGxs4M2bN0gkEuJDHzW/kyH8Vcga9e/tXXGEH9bX1Nhdc18XIxOIkQnEyARiZAIxMoEYmUCMTCBGJhAjE4iRCcTIBGJkAjEygRiZQIxMIEYmECMTiJEJxMgEYmQCMTKBGJlAjEwgRiYQIxOIkQnEyARiZAIxMoEYmUCMTCDph9A5feIPoROJkQnEyARiZAJJD7z423/UjL/9h3CMTCBGJhAjE4iRCcTIBGJkAjEygRiZQIxMIEYmECMTiJEJxMgEYmQCMTKBGJlAjEwgRiYQIxOIkQnEyARiZAIxMoEYmUCMTCBGJhAjE4iRCcTIBGJkAjEygRiZQIxMIEYmkBLIA8fB4VEX2zs2Do+64uZvlvcz7R20MHAccXNoUgK52e6i2e5g4DhotjvY3rG/6S914DjYtffHP1O3d4q9g5b4sNCkBHK3d3rr/sBxsNs4+CbQA8fB3kELZ+cXt+cD99b9MKUE8suVZXH0TaD9gAEgnVwUR6FJCeT5uVmkEpO/xMeEHjgOtndsKfD83CyeLaXEcWhSAnk6FkMum0IumxY3PQr02fkFtndscQyMgNfMF+I4VCmBjBF0KrEQCC1bZV/b2fkFdu19cQwASCUWQw8MlZAxgn625L+i9w5a9/oS6y5g2bFCGFMK2SsIunNyei/QQcC5bFoZYKiKjAeG7vZOfYFfriyH+iBLlrLIuAO62e58EXTQiY2XK8vSo/ywpzQyRtB+u86/Cn141PUFXjNfKAkMHZAxOghaf2WKY+AvQO8dtNBsd8QxMAKen5sVx8qkBTJGR95B0H4rFAB27f2JU6deqgNDJ2TcgJ6OxcRNvs+1u/a+9PX1dCymBTB0Q4aHk1/xhb555ioI+OXKshbA0BEZd0B756CDgNdfmdoAQ1dkfAZ0ELBuaYuMG9Cfsyrn52a1BIbuyLjx/Br0GleFK0lfk/bIuONSpe7AoIIMyaXKP+HT2gODEjJuXKpcf2Vi/ZWp3IWGL40UspfsiFvnSCJTi5EJxMgEYmQCMTKBGJlAjEwgRiYQIxOIkQnEyBoXiUQARtYn1x2KI0xNMbJWXQ0mP7obMwyAkfXp4vJKHOHJzDTAyPr04fyjOMLskxmAkfXIdYfonZ6J4/EbGBlZgzonfXGE6ZiB+aeMrEWuO8Th8Yk4RjK+ML7NyIr3vn2M6+trcYx0Mj6+zcgKd9zto3My+WnMTCqOmen/v4+NkRXtpP8B75ptcYxodAq5pdvvL2dkBTvu9mHvH4pjAMDK8hIMI3prxsgK5bpD/PG+JV3BGO2mZV//yMgK5LpDtI662N61pc/BAJBYnMdqLiuOAUYOZ647xPnHSxx3+2i8a+I/v/6O9+2O9CgaI+D8ak4cj4v8/MvOJ3HIqVMmFfddwV68khUtGp3Cd8+X7wQGI6tZJhXHP/5mSg+yZP0PsBocI+NhLRcAAAAASUVORK5CYII=;" vertex="1" parent="te6y8Lruh-g222A2JV-M-30">
          <mxGeometry x="137.5" width="20.5" height="30" as="geometry" />
        </mxCell>
        <mxCell id="te6y8Lruh-g222A2JV-M-33" value="Value" style="text;html=1;align=left;verticalAlign=middle;whiteSpace=wrap;rounded=0;fontColor=light-dark(#000000,#000000);fontStyle=1" vertex="1" parent="1">
          <mxGeometry x="760" y="77" width="40" height="30" as="geometry" />
        </mxCell>
      </root>
    </mxGraphModel>
  </diagram>
  <diagram id="NbWdOuHogbuMIzlYWIB4" name="Page-2">
    <mxGraphModel dx="1426" dy="743" grid="1" gridSize="10" guides="1" tooltips="1" connect="1" arrows="1" fold="1" page="1" pageScale="1" pageWidth="850" pageHeight="1100" math="0" shadow="0">
      <root>
        <mxCell id="0" />
        <mxCell id="1" parent="0" />
      </root>
    </mxGraphModel>
  </diagram>
</mxfile>
